<svg xmlns="http://www.w3.org/2000/svg" xmlns:xlink="http://www.w3.org/1999/xlink" style="fill:#A36333; stroke:#480A00;" version="1.1" id="Layer_1" x="0px" y="0px" viewBox="5.0 -10.0 100.0 135.0" enable-background="new 0 0 100 100" xml:space="preserve" height="70px" width="70px">
<g>
	<path d="M50,5C25.187,5,5,25.187,5,50c0,24.813,20.187,45,45,45c24.813,0,45-20.186,45-45C95,25.187,74.813,5,50,5z M50,92.387   C26.627,92.387,7.612,73.372,7.612,50C7.612,26.628,26.627,7.613,50,7.613c23.373,0,42.388,19.015,42.388,42.387   C92.388,73.372,73.372,92.387,50,92.387z"/>
	<path d="M50,9.911C27.894,9.911,9.91,27.895,9.91,50c0,22.106,17.984,40.09,40.09,40.09c22.106,0,40.09-17.984,40.09-40.09   C90.09,27.895,72.106,9.911,50,9.911z M11.984,46.238c0.046-0.474,0.475-0.824,0.941-0.776c0.474,0.046,0.821,0.468,0.775,0.941   c-0.018,0.186-0.035,0.374-0.051,0.56c-0.037,0.451-0.414,0.792-0.858,0.792c-0.023,0-0.048-0.001-0.071-0.003   c-0.475-0.039-0.828-0.454-0.789-0.929C11.947,46.628,11.965,46.432,11.984,46.238z M12.799,54.086   c-0.443,0-0.819-0.34-0.857-0.789c-0.017-0.196-0.033-0.393-0.046-0.59c-0.031-0.473,0.328-0.885,0.802-0.918   c0.467-0.029,0.886,0.328,0.918,0.803c0.012,0.187,0.027,0.373,0.042,0.559c0.04,0.474-0.311,0.892-0.785,0.932   C12.848,54.085,12.824,54.086,12.799,54.086z M14.089,60.298c-0.072,0.018-0.145,0.027-0.217,0.027   c-0.383,0-0.733-0.256-0.834-0.645c-0.049-0.189-0.097-0.378-0.144-0.569c-0.114-0.462,0.168-0.929,0.631-1.043   c0.462-0.117,0.928,0.168,1.042,0.63c0.045,0.184,0.091,0.366,0.139,0.549C14.826,59.707,14.55,60.177,14.089,60.298z    M14.822,40.323c-0.049,0.182-0.098,0.364-0.145,0.546c-0.1,0.389-0.451,0.646-0.833,0.646c-0.071,0-0.144-0.009-0.217-0.028   c-0.46-0.12-0.738-0.59-0.618-1.05c0.049-0.191,0.099-0.379,0.151-0.568c0.125-0.458,0.602-0.73,1.058-0.604   C14.676,39.39,14.947,39.864,14.822,40.323z M16.346,66.211c-0.116,0.053-0.237,0.077-0.356,0.077   c-0.328,0-0.641-0.188-0.785-0.504c-0.081-0.179-0.161-0.359-0.239-0.538c-0.19-0.437,0.01-0.945,0.447-1.134   c0.436-0.187,0.944,0.011,1.134,0.447c0.074,0.171,0.15,0.342,0.227,0.511C16.97,65.504,16.779,66.015,16.346,66.211z    M16.963,34.518c-0.08,0.169-0.158,0.34-0.236,0.513c-0.144,0.318-0.457,0.507-0.786,0.507c-0.118,0-0.238-0.023-0.354-0.076   c-0.433-0.195-0.627-0.705-0.431-1.14c0.081-0.179,0.163-0.358,0.247-0.537c0.202-0.43,0.715-0.615,1.146-0.413   C16.98,33.573,17.165,34.087,16.963,34.518z M19.569,71.658c-0.148,0.1-0.316,0.148-0.483,0.148c-0.276,0-0.547-0.133-0.714-0.378   c-0.11-0.161-0.219-0.325-0.327-0.488c-0.261-0.397-0.151-0.932,0.247-1.193c0.398-0.258,0.931-0.151,1.194,0.247   c0.103,0.156,0.207,0.313,0.312,0.468C20.066,70.854,19.963,71.391,19.569,71.658z M20.06,29.16   c-0.108,0.154-0.214,0.31-0.32,0.467c-0.166,0.246-0.438,0.379-0.714,0.379c-0.166,0-0.334-0.048-0.482-0.148   c-0.394-0.266-0.498-0.802-0.231-1.197c0.109-0.161,0.22-0.323,0.332-0.485c0.271-0.391,0.809-0.487,1.199-0.216   C20.235,28.232,20.332,28.769,20.06,29.16z M87.637,43.432c0.033,0.194,0.065,0.387,0.096,0.581   c0.074,0.472-0.248,0.913-0.718,0.986c-0.045,0.006-0.09,0.009-0.134,0.009c-0.418,0-0.784-0.303-0.85-0.728   c-0.029-0.187-0.06-0.371-0.091-0.556c-0.081-0.469,0.234-0.915,0.703-0.995C87.114,42.651,87.556,42.963,87.637,43.432z    M84.888,36.645c0.447-0.158,0.941,0.073,1.102,0.522c0.066,0.185,0.131,0.371,0.194,0.559c0.153,0.45-0.089,0.94-0.54,1.091   c-0.092,0.031-0.185,0.046-0.276,0.046c-0.359,0-0.694-0.226-0.816-0.585c-0.06-0.178-0.122-0.354-0.185-0.531   C84.207,37.298,84.44,36.804,84.888,36.645z M68.767,17.704c0.249-0.407,0.779-0.533,1.185-0.285   c0.167,0.104,0.334,0.208,0.501,0.314c0.402,0.255,0.521,0.787,0.266,1.189c-0.165,0.258-0.443,0.4-0.728,0.4   c-0.158,0-0.318-0.043-0.461-0.135c-0.159-0.1-0.319-0.2-0.479-0.298C68.645,18.64,68.518,18.109,68.767,17.704z M63.04,14.993   c0.177-0.443,0.68-0.657,1.119-0.482c0.184,0.074,0.366,0.148,0.548,0.224c0.44,0.182,0.647,0.687,0.465,1.126   c-0.138,0.331-0.458,0.531-0.796,0.531c-0.11,0-0.222-0.021-0.33-0.066c-0.174-0.073-0.349-0.144-0.523-0.213   C63.08,15.937,62.864,15.436,63.04,14.993z M56.936,13.296c0.098-0.466,0.558-0.759,1.022-0.664   c0.192,0.04,0.384,0.083,0.576,0.126c0.464,0.107,0.754,0.568,0.649,1.032c-0.091,0.399-0.447,0.67-0.84,0.67   c-0.063,0-0.127-0.005-0.192-0.021c-0.183-0.042-0.367-0.083-0.55-0.122C57.135,14.219,56.837,13.762,56.936,13.296z    M51.533,11.832c0.196,0.008,0.393,0.017,0.588,0.027c0.475,0.028,0.839,0.434,0.813,0.909c-0.026,0.459-0.406,0.813-0.86,0.813   c-0.016,0-0.032,0-0.048-0.001c-0.187-0.011-0.375-0.019-0.563-0.027c-0.475-0.02-0.845-0.42-0.826-0.897   C50.656,12.183,51.039,11.807,51.533,11.832z M45.062,12.118c0.195-0.025,0.391-0.049,0.587-0.071   c0.471-0.058,0.899,0.287,0.952,0.76c0.054,0.473-0.287,0.899-0.76,0.951c-0.186,0.021-0.371,0.043-0.557,0.067   c-0.037,0.005-0.075,0.007-0.112,0.007c-0.426,0-0.797-0.315-0.853-0.75C44.257,12.611,44.59,12.179,45.062,12.118z M38.733,13.49   c0.187-0.057,0.376-0.113,0.565-0.169c0.453-0.129,0.935,0.13,1.069,0.586c0.133,0.457-0.129,0.935-0.586,1.069   c-0.18,0.053-0.36,0.107-0.539,0.161c-0.085,0.026-0.17,0.039-0.255,0.039c-0.368,0-0.709-0.237-0.823-0.608   C38.023,14.114,38.278,13.632,38.733,13.49z M32.73,15.919c0.174-0.088,0.35-0.175,0.526-0.262   c0.427-0.209,0.944-0.031,1.152,0.396c0.209,0.428,0.032,0.944-0.396,1.153c-0.168,0.083-0.336,0.166-0.503,0.25   c-0.125,0.063-0.258,0.093-0.389,0.093c-0.314,0-0.618-0.173-0.769-0.473C32.136,16.652,32.306,16.134,32.73,15.919z    M23.666,76.483c-0.166,0.161-0.381,0.24-0.596,0.24c-0.226,0-0.453-0.089-0.622-0.265c-0.136-0.141-0.27-0.283-0.403-0.426   c-0.325-0.347-0.307-0.893,0.041-1.218c0.347-0.325,0.893-0.307,1.218,0.04c0.128,0.137,0.258,0.274,0.388,0.411   C24.022,75.609,24.01,76.154,23.666,76.483z M24.013,24.404c-0.132,0.134-0.262,0.268-0.392,0.404   c-0.169,0.178-0.396,0.267-0.623,0.267c-0.214,0-0.429-0.08-0.595-0.239c-0.344-0.329-0.357-0.874-0.027-1.218   c0.136-0.143,0.273-0.284,0.411-0.424c0.336-0.34,0.881-0.342,1.219-0.008C24.344,23.52,24.348,24.065,24.013,24.404z    M28.519,80.554c-0.169,0.229-0.43,0.35-0.694,0.35c-0.178,0-0.357-0.054-0.511-0.168c-0.158-0.117-0.315-0.235-0.471-0.353   c-0.379-0.287-0.452-0.828-0.164-1.207c0.288-0.379,0.829-0.454,1.207-0.164c0.15,0.113,0.3,0.227,0.452,0.339   C28.72,79.632,28.801,80.172,28.519,80.554z M28.709,20.38c-0.152,0.109-0.303,0.22-0.453,0.331   c-0.154,0.116-0.335,0.171-0.514,0.171c-0.263,0-0.523-0.12-0.692-0.348c-0.285-0.38-0.205-0.921,0.177-1.205   c0.157-0.117,0.316-0.234,0.476-0.349c0.385-0.277,0.925-0.189,1.203,0.196C29.183,19.564,29.095,20.101,28.709,20.38z    M33.988,83.75c-0.151,0.301-0.455,0.474-0.77,0.474c-0.131,0-0.263-0.03-0.388-0.092c-0.176-0.09-0.35-0.179-0.525-0.27   c-0.422-0.221-0.584-0.742-0.364-1.164c0.221-0.422,0.743-0.584,1.163-0.364c0.167,0.088,0.334,0.173,0.503,0.259   C34.032,82.807,34.202,83.326,33.988,83.75z M39.925,85.972c-0.113,0.371-0.455,0.611-0.824,0.611   c-0.083,0-0.168-0.012-0.251-0.037c-0.189-0.058-0.376-0.117-0.564-0.177c-0.453-0.145-0.704-0.629-0.558-1.083   c0.145-0.453,0.632-0.703,1.083-0.559c0.18,0.057,0.36,0.114,0.541,0.169C39.806,85.035,40.063,85.517,39.925,85.972z    M45.292,87.905c-0.036,0-0.072-0.002-0.109-0.007c-0.195-0.024-0.389-0.05-0.584-0.077c-0.471-0.067-0.799-0.503-0.733-0.975   c0.066-0.471,0.506-0.797,0.974-0.733c0.186,0.027,0.373,0.051,0.559,0.074c0.472,0.061,0.806,0.491,0.747,0.964   C46.091,87.587,45.719,87.905,45.292,87.905z M51.649,88.163c-0.196,0.009-0.391,0.015-0.587,0.021   c-0.007,0.001-0.015,0.001-0.023,0.001c-0.465,0-0.849-0.371-0.861-0.84c-0.013-0.475,0.363-0.871,0.839-0.883   c0.187-0.005,0.375-0.012,0.562-0.02c0.472-0.034,0.877,0.351,0.896,0.826C52.495,87.744,52.125,88.145,51.649,88.163z    M58.075,87.344c-0.192,0.04-0.384,0.081-0.578,0.119c-0.057,0.012-0.113,0.017-0.169,0.017c-0.403,0-0.762-0.284-0.844-0.693   c-0.093-0.468,0.21-0.921,0.677-1.014c0.184-0.037,0.368-0.074,0.551-0.114c0.462-0.097,0.923,0.195,1.024,0.66   C58.836,86.785,58.54,87.243,58.075,87.344z M64.268,85.445c-0.182,0.074-0.364,0.145-0.547,0.216   c-0.102,0.04-0.208,0.058-0.311,0.058c-0.345,0-0.671-0.208-0.803-0.55c-0.172-0.445,0.048-0.943,0.492-1.115   c0.176-0.068,0.351-0.137,0.525-0.207c0.441-0.178,0.943,0.036,1.121,0.477C64.923,84.765,64.709,85.267,64.268,85.445z    M70.042,82.526c-0.167,0.103-0.334,0.204-0.501,0.304c-0.139,0.082-0.291,0.122-0.442,0.122c-0.293,0-0.579-0.15-0.74-0.42   c-0.244-0.409-0.111-0.938,0.298-1.182c0.161-0.096,0.322-0.194,0.482-0.292c0.405-0.25,0.936-0.124,1.185,0.282   C70.574,81.746,70.447,82.276,70.042,82.526z M75.244,78.669c-0.147,0.13-0.294,0.259-0.443,0.386   c-0.163,0.139-0.362,0.207-0.56,0.207c-0.243,0-0.484-0.102-0.655-0.3c-0.31-0.361-0.268-0.905,0.093-1.215   c0.143-0.123,0.285-0.247,0.427-0.371c0.357-0.315,0.903-0.279,1.216,0.079C75.637,77.811,75.601,78.356,75.244,78.669z    M75.538,72.68c0.202,0.43,0.016,0.944-0.414,1.146c-0.119,0.055-0.243,0.082-0.365,0.082c-0.324,0-0.635-0.184-0.781-0.497   C71.62,68.379,63.962,66.04,61.08,65.16c-1.411-0.433-1.887-0.577-1.887-1.293c0-0.341,0.201-0.65,0.513-0.788   c6.295-2.788,6.321-8.128,6.295-8.83c-0.092-0.763-0.316-1.574-0.722-2.429c-2.662-5.593-6.085,2.17-6.085,2.17   s-4.944-1.14-4.944,0c0-1.521,5.705-15.593-6.182-16.354c-2.203-0.14-4.229-0.77-6.007-1.774   c-0.558,2.58-2.507,10.043-6.943,13.379c0.325,2.301,2.495,13.503,13.837,13.81c0.393,0.011,0.73,0.286,0.817,0.67   c0.087,0.385-0.097,0.779-0.448,0.958c-0.093,0.048-9.378,4.974-10.355,17.247c-0.036,0.452-0.413,0.793-0.858,0.793   c-0.023,0-0.046-0.002-0.07-0.003c-0.475-0.038-0.828-0.453-0.791-0.928c0.763-9.581,6.098-14.938,9.157-17.253   C34.58,62.531,33.345,48.976,33.345,48.831c0-0.289,0.144-0.557,0.384-0.717C38.401,45,40.264,36.11,40.51,34.836   c-2.292-1.734-4.046-4.157-5.042-6.979c-0.268-0.761,0.429-1.461,1.21-1.26c0.006,0.003,0.013,0.004,0.019,0.005   c0.944,0.235,1.935,0.104,2.898-0.027c9.024-1.234,19.241-4.247,27.474,1.268c7.925,5.309,11.484,18.158,5.783,26.338   c-1.136,1.629-3.332,3.697-5.714,5.168c-0.264,0.163-0.544,0.205-0.805,0.165c-0.788,1.388-2.06,2.919-4.119,4.191   C65.662,64.776,73.022,67.31,75.538,72.68z M75.67,22.872c-0.17,0.188-0.405,0.284-0.64,0.284c-0.206,0-0.412-0.073-0.577-0.221   c-0.139-0.126-0.28-0.251-0.421-0.376c-0.358-0.314-0.394-0.858-0.08-1.216c0.313-0.359,0.858-0.394,1.216-0.081   c0.148,0.13,0.295,0.26,0.44,0.391C75.961,21.973,75.989,22.517,75.67,22.872z M79.726,73.993   c-0.124,0.152-0.249,0.305-0.375,0.457c-0.17,0.203-0.415,0.309-0.661,0.309c-0.195,0-0.391-0.066-0.553-0.201   c-0.365-0.306-0.413-0.849-0.108-1.215c0.12-0.143,0.239-0.288,0.356-0.434c0.3-0.37,0.841-0.427,1.212-0.128   C79.967,73.081,80.025,73.623,79.726,73.993z M79.883,27.598c-0.157,0.124-0.345,0.184-0.531,0.184   c-0.256,0-0.509-0.114-0.679-0.33c-0.115-0.146-0.232-0.293-0.349-0.437c-0.301-0.37-0.245-0.913,0.124-1.212   c0.369-0.302,0.911-0.246,1.212,0.123c0.124,0.153,0.248,0.307,0.37,0.463C80.323,26.762,80.258,27.304,79.883,27.598z    M83.356,68.629c-0.096,0.171-0.193,0.342-0.292,0.511c-0.16,0.277-0.449,0.43-0.746,0.43c-0.147,0-0.295-0.037-0.431-0.116   c-0.412-0.238-0.552-0.766-0.314-1.178c0.094-0.162,0.188-0.327,0.28-0.491c0.234-0.416,0.758-0.563,1.173-0.329   C83.442,67.688,83.589,68.215,83.356,68.629z M83.243,32.962c-0.131,0.071-0.272,0.105-0.411,0.105   c-0.306,0-0.602-0.163-0.758-0.451c-0.089-0.163-0.179-0.326-0.271-0.489c-0.234-0.414-0.089-0.94,0.326-1.174   c0.414-0.234,0.939-0.09,1.174,0.325c0.097,0.17,0.192,0.343,0.286,0.515C83.816,32.211,83.661,32.735,83.243,32.962z    M86.029,62.724c-0.066,0.185-0.133,0.369-0.201,0.553c-0.128,0.348-0.458,0.564-0.808,0.564c-0.099,0-0.199-0.017-0.298-0.054   c-0.447-0.164-0.675-0.66-0.511-1.106c0.066-0.178,0.13-0.356,0.193-0.534c0.16-0.448,0.653-0.682,1.101-0.524   C85.954,61.783,86.188,62.274,86.029,62.724z M87.553,57.033c-0.078,0.414-0.44,0.703-0.846,0.703c-0.053,0-0.106-0.004-0.16-0.014   c-0.468-0.089-0.776-0.539-0.688-1.006c0.035-0.184,0.067-0.37,0.099-0.555c0.081-0.467,0.525-0.784,0.995-0.703   c0.469,0.081,0.784,0.525,0.704,0.995C87.623,56.647,87.588,56.841,87.553,57.033z M88.195,50.588   c-0.007,0.472-0.392,0.85-0.862,0.85c-0.004,0-0.008,0-0.012,0c-0.476-0.007-0.856-0.399-0.849-0.874   c0.003-0.188,0.005-0.376,0.005-0.564v-0.114c0-0.476,0.386-0.862,0.862-0.862c0.476,0,0.861,0.386,0.861,0.862V50   C88.199,50.197,88.198,50.392,88.195,50.588z"/>
</g></svg>
